<?xml version="1.0" standalone="no"?>
<!DOCTYPE svg PUBLIC "-//W3C//DTD SVG 20010904//EN"
 "http://www.w3.org/TR/2001/REC-SVG-20010904/DTD/svg10.dtd">
<svg version="1.0" xmlns="http://www.w3.org/2000/svg"
 width="328.000000pt" height="300.000000pt" viewBox="0 0 328.000000 300.000000"
 preserveAspectRatio="xMidYMid meet">

<g transform="translate(0.000000,300.000000) scale(0.100000,-0.100000)"
fill="#000000" stroke="none">
<path d="M1517 2990 c-265 -33 -505 -124 -711 -267 -107 -75 -276 -247 -352
-358 -134 -195 -214 -396 -254 -632 -19 -107 -22 -154 -17 -287 4 -150 6 -161
27 -178 28 -22 44 -23 65 -2 13 13 15 26 9 58 -4 22 -7 104 -6 181 1 233 54
446 160 650 l57 110 50 5 c36 4 67 16 105 41 112 74 238 126 372 154 163 35
491 4 510 -47 6 -16 -13 -56 -209 -438 -321 -624 -287 -564 -327 -571 -20 -3
-39 -9 -42 -12 -12 -12 6 -37 27 -37 11 0 19 -5 17 -12 -4 -12 -15 -19 -61
-37 -53 -21 -82 -102 -56 -154 33 -64 88 -89 153 -67 77 25 102 120 51 190
-13 18 -22 37 -19 41 18 29 67 -18 84 -79 20 -75 -34 -171 -111 -193 -37 -12
-50 -31 -29 -44 17 -11 80 15 117 48 91 80 96 201 13 289 l-40 41 61 121 c34
67 81 157 104 201 23 44 103 199 178 345 75 146 142 273 150 284 13 18 15 18
61 -3 51 -22 51 -23 31 -86 -5 -17 7 -27 69 -64 155 -91 301 -255 386 -433 68
-143 85 -227 84 -418 0 -126 -4 -180 -18 -230 -40 -146 -108 -282 -192 -385
-24 -30 -44 -59 -44 -64 0 -5 13 -14 29 -19 25 -9 33 -20 50 -79 37 -120 36
-120 178 -149 l83 -17 20 -54 c11 -30 20 -57 20 -62 0 -11 -120 -65 -215 -96
-334 -112 -731 -88 -1060 66 -27 12 -87 45 -132 71 -45 26 -88 48 -95 48 -22
0 -38 -22 -38 -52 0 -23 10 -35 57 -65 77 -49 241 -125 337 -157 657 -217
1399 48 1764 629 150 239 234 570 218 854 -30 517 -303 970 -742 1229 -127 76
-328 148 -493 177 -104 19 -340 27 -434 15z m20 -276 c8 -22 -18 -37 -36 -20
-7 8 -10 19 -7 25 10 16 36 13 43 -5z m745 -131 c37 -33 13 -77 -39 -71 -22 2
-29 9 -31 31 -6 51 33 74 70 40z m508 -373 c43 -43 11 -120 -49 -120 -63 0
-98 66 -61 113 27 34 80 37 110 7z m-425 -340 c40 -45 -20 -105 -65 -65 -24
22 -25 43 -3 67 21 23 45 23 68 -2z m553 -273 c4 -22 -27 -35 -38 -16 -10 15
7 42 24 36 6 -2 12 -11 14 -20z m-82 -472 c15 -23 15 -27 0 -50 -19 -29 -47
-32 -70 -9 -31 30 -9 84 34 84 11 0 27 -11 36 -25z m-511 -215 c0 -7 -6 -15
-12 -17 -8 -3 -13 4 -13 17 0 13 5 20 13 18 6 -3 12 -11 12 -18z m85 -145 c27
-32 -23 -82 -55 -55 -15 13 -20 51 -8 63 12 12 50 7 63 -8z"/>
<path d="M1609 2092 c-17 -18 -35 -51 -250 -455 l-137 -258 26 -51 c65 -125
23 -283 -95 -358 -24 -16 -39 -31 -34 -34 27 -17 749 -256 772 -256 34 0 59 9
59 22 0 5 10 19 23 31 38 37 121 186 132 239 4 18 11 35 14 38 11 8 39 170 30
175 -4 3 -9 -1 -12 -7 -7 -21 -42 5 -45 35 -5 41 15 70 44 63 23 -6 24 -4 24
46 0 208 -103 441 -263 598 -66 66 -193 156 -233 166 -13 3 -24 10 -24 15 0
14 -13 10 -31 -9z m135 -193 c51 -40 15 -90 -39 -55 -37 24 -33 70 6 75 4 1
18 -9 33 -20z m-104 -92 c0 -19 -10 -27 -26 -20 -21 8 -17 33 6 33 11 0 20 -6
20 -13z m270 -367 c24 -24 34 -62 26 -95 -8 -32 -49 -34 -70 -3 -28 39 -16
118 16 118 4 0 17 -9 28 -20z m-315 -151 c8 -23 -7 -45 -24 -35 -6 4 -11 18
-11 32 0 30 26 32 35 3z"/>
<path d="M815 1306 c-22 -33 -24 -79 -4 -84 11 -2 21 11 32 40 10 24 17 49 17
56 0 21 -29 13 -45 -12z"/>
<path d="M794 1185 c-9 -22 10 -70 29 -73 20 -4 22 22 7 62 -11 29 -28 34 -36
11z"/>
<path d="M274 1110 c-34 -13 -35 -35 -7 -113 60 -168 178 -364 298 -495 83
-90 98 -99 131 -77 13 8 24 22 24 31 0 8 -35 55 -78 103 -126 143 -239 330
-290 481 -21 60 -46 82 -78 70z"/>
<path d="M860 1064 c0 -20 28 -43 53 -44 24 0 21 26 -5 44 -29 21 -48 20 -48
0z"/>
<path d="M1196 723 c-9 -9 -7 -56 2 -70 9 -14 151 -65 162 -58 4 2 4 21 1 42
-6 37 -8 39 -83 65 -42 15 -79 24 -82 21z"/>
<path d="M1410 629 c0 -62 5 -65 148 -113 76 -25 180 -61 232 -79 52 -19 112
-37 133 -41 32 -6 37 -5 37 13 0 55 -22 67 -310 166 -247 85 -240 83 -240 54z"/>
</g>
</svg>
